<?xml version="1.0" ?><!DOCTYPE svg  PUBLIC '-//W3C//DTD SVG 1.1//EN'  'http://www.w3.org/Graphics/SVG/1.1/DTD/svg11.dtd'><svg enable-background="new 0 0 128 128" id="Слой_1" version="1.1" viewBox="0 0 128 128" xml:space="preserve" xmlns="http://www.w3.org/2000/svg" xmlns:xlink="http://www.w3.org/1999/xlink"><g><path d="M96.2,97.5L81,90.1v0l-5-2.4v-1.6c5.6-3.8,11.8-11.2,17-25.1c2.7-0.1,5-1.3,6.4-3.3c1.7-2.4,2-5.6,0.8-8.2   c-0.4-0.9-1-1.6-1.6-2.2h2.4v-9.6l-4.3-1.2v-0.6c0-12.5-7.1-23.8-18.3-29.3c-0.6-2.2-2.5-3.8-4.9-3.8H66V1h-4v1.7h-7.5   c-2.4,0-4.3,1.6-4.9,3.8C38.4,12,31.3,23.4,31.3,35.8v0.6L27,37.7v9.6h2.4c-0.7,0.6-1.2,1.4-1.6,2.2c-1.2,2.6-0.9,5.8,0.8,8.2   c1.5,2.1,3.8,3.2,6.4,3.3c5.2,13.9,11.5,21.2,17,25.1v1.6l-3.7,1.8v0l-16.5,8c-4.1,2-6.8,6.2-6.8,10.8V126h78v-17.7   C103,103.7,100.3,99.5,96.2,97.5z M71.9,90.3c-0.1,0.5-0.2,0.9-0.3,1.4c0,0,0,0.1,0,0.1c-0.1,0.2-0.1,0.3-0.2,0.5   c0,0.1-0.1,0.2-0.1,0.3c-0.1,0.1-0.1,0.2-0.2,0.3c-0.1,0.2-0.2,0.4-0.3,0.5c0,0,0,0,0,0.1c-0.9,1.3-2.1,2.3-3.5,2.9c0,0,0,0-0.1,0   c-0.2,0.1-0.4,0.2-0.6,0.2c0,0-0.1,0-0.1,0c-0.2,0.1-0.4,0.1-0.6,0.1c-0.1,0-0.1,0-0.2,0c-0.2,0-0.4,0.1-0.6,0.1   c-0.1,0-0.1,0-0.2,0c-0.3,0-0.5,0-0.8,0c-4.4,0-8-3.6-8-8v-0.6c3.3,1.5,6.1,1.8,8,1.8c1.9,0,4.7-0.3,8-1.8V89   C72,89.2,71.9,89.8,71.9,90.3z M96.2,55.4c-0.4,0.5-0.9,1.1-1.8,1.4c0.5-2.2,0.9-4.6,1.1-6.8c0.5,0.3,0.9,0.7,1.1,1.3   C97.2,52.5,97.1,54.2,96.2,55.4z M31,40.7l4.3-1.2v-3.6c0-10.2,5.5-19.6,14.1-24.7v12h4V7.8c0-0.6,0.5-1.1,1.1-1.1H62v23h4v-23h7.5   c0.6,0,1.1,0.5,1.1,1.1v15.3h4v-12c8.7,5.1,14.1,14.5,14.1,24.7v3.6l4.3,1.2v2.6H31V40.7z M31.8,55.4c-0.9-1.2-1-2.9-0.4-4.1   c0.3-0.5,0.6-1,1.1-1.3c0.2,2.5,0.7,4.7,1.2,6.8C32.8,56.5,32.2,55.9,31.8,55.4z M38.3,58.4c-0.9-3.3-1.8-6.8-2-11.1h55.4   c-0.1,3.2-0.8,8-1.9,11c-9,25.1-21,27.8-25.8,27.8C59.3,86.2,47.3,83.5,38.3,58.4z M99,122h-9v-3h-4v3H42v-3h-4v3h-9v-13.7   c0-3.1,1.8-5.9,4.5-7.2L52.4,92c0,0.1,0.1,0.2,0.1,0.3c0,0.1,0.1,0.3,0.1,0.4c0.1,0.2,0.2,0.5,0.3,0.7c0,0.1,0.1,0.2,0.1,0.3   c0.1,0.3,0.3,0.6,0.4,0.8c0,0,0,0.1,0.1,0.1c0.2,0.3,0.4,0.6,0.6,0.9c0.1,0.1,0.1,0.2,0.2,0.3c0.1,0.2,0.3,0.4,0.5,0.6   c0.1,0.1,0.2,0.2,0.3,0.3c0.1,0.2,0.3,0.3,0.5,0.5c0.1,0.1,0.2,0.2,0.3,0.3c0.2,0.2,0.3,0.3,0.5,0.5c0.1,0.1,0.2,0.2,0.3,0.3   c0.2,0.2,0.4,0.3,0.6,0.5c0.1,0.1,0.2,0.1,0.2,0.2c0.3,0.2,0.6,0.4,0.9,0.6c0.1,0,0.1,0.1,0.2,0.1c0.3,0.1,0.5,0.3,0.8,0.4   c0.1,0.1,0.2,0.1,0.4,0.1c0.2,0.1,0.4,0.2,0.7,0.2c0.1,0,0.3,0.1,0.4,0.1c0.2,0.1,0.5,0.1,0.7,0.2c0.1,0,0.3,0.1,0.4,0.1   c0.2,0,0.5,0.1,0.8,0.1c0.1,0,0.2,0,0.4,0c0.4,0,0.8,0.1,1.1,0.1c0.4,0,0.7,0,1.1,0c0.2,0,0.4,0,0.5-0.1c0.2,0,0.3,0,0.5-0.1   c0.2,0,0.5-0.1,0.7-0.2c0.1,0,0.2,0,0.3-0.1c0.3-0.1,0.5-0.2,0.8-0.2c0.1,0,0.1,0,0.2-0.1c0.3-0.1,0.6-0.2,0.8-0.3c0,0,0.1,0,0.1,0   c0.3-0.1,0.6-0.3,0.8-0.4c0,0,0,0,0,0c0.3-0.2,0.5-0.3,0.8-0.5c0,0,0,0,0,0c0.3-0.2,0.5-0.3,0.7-0.5c0,0,0.1,0,0.1-0.1   c0.2-0.2,0.4-0.4,0.6-0.5c0,0,0.1-0.1,0.1-0.1c0.2-0.2,0.3-0.3,0.5-0.5c0.1-0.1,0.2-0.2,0.2-0.3c0.1-0.1,0.2-0.3,0.4-0.4   c0.1-0.2,0.3-0.3,0.4-0.5c0.1-0.1,0.1-0.2,0.2-0.2c0.8-1.1,1.4-2.4,1.7-3.8l18.8,9.1c2.8,1.3,4.5,4.2,4.5,7.2V122z" fill="#000000"/><rect fill="#000000" x="42.5" y="36"/></g></svg>